<svg data-v-423bf9ae="" xmlns="http://www.w3.org/2000/svg" viewBox="0 0 433.41335993986917 60" class="font"><!----><!----><!----><g data-v-423bf9ae="" id="03b0a4f1-b8d3-41f6-bc0c-9e183dd26cf9" fill="black" transform="matrix(4.501125307082416,0,0,4.501125307082416,-1.2603173562339123,-17.959490733440653)"><path d="M9.31 14.35L6.13 4.58L3.50 4.58L0.28 14.35L2.44 14.35L3.14 12.03L6.40 12.03L7.10 14.35ZM5.88 10.22L3.64 10.22L4.72 6.51L4.79 6.51ZM17.18 14.35L17.18 12.74L16.49 12.74L16.49 9.52C16.49 7.78 15.43 6.83 13.36 6.83C11.82 6.83 10.98 7.36 10.39 8.23L11.62 9.32C11.94 8.88 12.38 8.46 13.20 8.46C14.07 8.46 14.42 8.90 14.42 9.62L14.42 10.08L13.26 10.08C11.31 10.08 10.11 10.82 10.11 12.38C10.11 13.65 10.92 14.52 12.39 14.52C13.51 14.52 14.32 14.01 14.55 13.06L14.63 13.06C14.76 13.85 15.29 14.35 16.03 14.35ZM13.16 13.08C12.54 13.08 12.19 12.82 12.19 12.29L12.19 12.08C12.19 11.55 12.61 11.26 13.41 11.26L14.42 11.26L14.42 12.12C14.42 12.80 13.85 13.08 13.16 13.08ZM21.85 10.43L21.31 12.56L21.22 12.56L20.69 10.43L19.61 7.00L17.56 7.00L20.13 14.73L19.88 15.54L18.49 15.54L18.49 17.15L19.78 17.15C21.04 17.15 21.66 16.62 22.04 15.48L24.86 7.00L22.93 7.00ZM30.25 14.35L32.33 14.35L32.33 7.00L30.25 7.00L30.25 11.77C30.25 12.47 29.60 12.84 28.95 12.84C28.20 12.84 27.90 12.33 27.90 11.44L27.90 7.00L25.83 7.00L25.83 11.62C25.83 13.47 26.63 14.52 28.13 14.52C29.33 14.52 29.93 13.86 30.18 13.12L30.25 13.12ZM36.75 14.52C38.64 14.52 39.90 13.48 39.90 12.07C39.90 10.79 39.07 10.07 37.48 9.86L36.65 9.74C36.05 9.66 35.88 9.45 35.88 9.06C35.88 8.69 36.16 8.44 36.86 8.44C37.48 8.44 38.09 8.74 38.56 9.20L39.75 7.98C39.00 7.25 38.29 6.83 36.75 6.83C35.00 6.83 33.89 7.81 33.89 9.23C33.89 10.56 34.71 11.28 36.37 11.49L37.17 11.59C37.69 11.66 37.91 11.84 37.91 12.21C37.91 12.64 37.63 12.91 36.82 12.91C36.02 12.91 35.39 12.54 34.87 11.97L33.66 13.20C34.41 14.04 35.34 14.52 36.75 14.52ZM41.31 14.35L43.39 14.35L43.39 9.59C43.39 8.86 44.04 8.51 44.72 8.51C45.47 8.51 45.74 8.97 45.74 9.91L45.74 14.35L47.81 14.35L47.81 9.74C47.81 7.90 47.01 6.83 45.51 6.83C44.35 6.83 43.74 7.48 43.47 8.25L43.39 8.25L43.39 3.99L41.31 3.99ZM56.24 14.52C58.67 14.52 60.05 13.22 60.05 11.34C60.05 9.66 59.08 8.76 57.08 8.44L56.11 8.29C55.30 8.16 54.95 7.91 54.95 7.24C54.95 6.65 55.41 6.29 56.36 6.29C57.37 6.29 58.00 6.66 58.46 7.21L59.88 5.78C59.08 4.90 57.96 4.41 56.49 4.41C54.19 4.41 52.82 5.63 52.82 7.38C52.82 9.02 53.76 10.02 55.82 10.29L56.78 10.42C57.69 10.54 57.92 10.93 57.92 11.47C57.92 12.18 57.41 12.64 56.38 12.64C55.43 12.64 54.59 12.26 53.93 11.52L52.53 12.94C53.37 13.86 54.53 14.52 56.24 14.52ZM64.76 14.52C66.11 14.52 67.19 14.06 67.84 13.30L66.81 12.01C66.35 12.49 65.87 12.89 65.00 12.89C63.90 12.89 63.38 12.28 63.38 11.31L63.38 11.20L68.10 11.20L68.10 10.58C68.10 8.60 67.12 6.83 64.68 6.83C62.47 6.83 61.24 8.34 61.24 10.67C61.24 13.02 62.51 14.52 64.76 14.52ZM64.72 8.36C65.55 8.36 65.95 8.96 65.95 9.86L65.95 9.98L63.38 9.98L63.38 9.87C63.38 8.96 63.90 8.36 64.72 8.36ZM69.57 14.35L71.64 14.35L71.64 9.59C71.64 8.86 72.30 8.51 72.97 8.51C73.72 8.51 73.99 8.97 73.99 9.91L73.99 14.35L76.06 14.35L76.06 9.74C76.06 7.90 75.26 6.83 73.77 6.83C72.60 6.83 71.99 7.48 71.72 8.25L71.64 8.25L71.64 3.99L69.57 3.99ZM84.71 14.88C84.71 13.52 83.94 12.74 82.15 12.74L80.02 12.74C79.39 12.74 79.14 12.53 79.14 12.18C79.14 11.93 79.27 11.72 79.46 11.59C79.84 11.69 80.28 11.75 80.77 11.75C82.89 11.75 83.92 10.78 83.92 9.31C83.92 8.37 83.51 7.62 82.66 7.21L82.66 7.13L84.28 7.13L84.28 5.59L83.12 5.59C82.42 5.59 82.01 5.92 82.01 6.69L82.01 6.97C81.65 6.87 81.23 6.83 80.77 6.83C78.65 6.83 77.62 7.83 77.62 9.31C77.62 10.26 78.05 11.00 78.93 11.41L78.93 11.47C78.25 11.61 77.56 12.00 77.56 12.77C77.56 13.40 77.92 13.93 78.62 14.06L78.62 14.21C77.77 14.32 77.25 14.80 77.25 15.61C77.25 16.67 78.19 17.32 80.74 17.32C83.73 17.32 84.71 16.44 84.71 14.88ZM82.77 15.16C82.77 15.69 82.35 15.95 81.23 15.95L80.39 15.95C79.27 15.95 78.85 15.69 78.85 15.16C78.85 14.94 78.93 14.69 79.11 14.50L81.63 14.50C82.46 14.50 82.77 14.74 82.77 15.16ZM80.77 10.39C79.95 10.39 79.55 10.02 79.55 9.38L79.55 9.21C79.55 8.57 79.95 8.20 80.77 8.20C81.58 8.20 81.98 8.57 81.98 9.21L81.98 9.38C81.98 10.02 81.58 10.39 80.77 10.39ZM92.19 14.35L92.19 12.74L91.50 12.74L91.50 9.52C91.50 7.78 90.44 6.83 88.37 6.83C86.83 6.83 85.99 7.36 85.40 8.23L86.63 9.32C86.95 8.88 87.39 8.46 88.21 8.46C89.08 8.46 89.43 8.90 89.43 9.62L89.43 10.08L88.27 10.08C86.32 10.08 85.12 10.82 85.12 12.38C85.12 13.65 85.93 14.52 87.40 14.52C88.52 14.52 89.33 14.01 89.56 13.06L89.64 13.06C89.77 13.85 90.30 14.35 91.04 14.35ZM88.17 13.08C87.56 13.08 87.21 12.82 87.21 12.29L87.21 12.08C87.21 11.55 87.63 11.26 88.42 11.26L89.43 11.26L89.43 12.12C89.43 12.80 88.86 13.08 88.17 13.08ZM96.57 14.35L96.57 12.74L95.65 12.74L95.65 3.99L93.58 3.99L93.58 12.33C93.58 13.64 94.22 14.35 95.63 14.35Z"></path></g><!----><!----></svg>