<svg data-v-423bf9ae="" xmlns="http://www.w3.org/2000/svg" viewBox="0 0 216.70214199891876 60" class="font"><!----><!----><!----><g data-v-423bf9ae="" id="4776fe3b-e2ab-4513-8e42-d215b6f51ef5" fill="black" transform="matrix(4.559270569581267,0,0,4.559270569581267,-1.2765970457778906,-18.19148937769127)"><path d="M9.31 14.35L6.13 4.58L3.50 4.58L0.28 14.35L2.44 14.35L3.14 12.03L6.40 12.03L7.10 14.35ZM5.88 10.22L3.64 10.22L4.72 6.51L4.79 6.51ZM17.18 14.35L17.18 12.74L16.49 12.74L16.49 9.52C16.49 7.78 15.43 6.83 13.36 6.83C11.82 6.83 10.98 7.36 10.39 8.23L11.62 9.32C11.94 8.88 12.38 8.46 13.20 8.46C14.07 8.46 14.42 8.90 14.42 9.62L14.42 10.08L13.26 10.08C11.31 10.08 10.11 10.82 10.11 12.38C10.11 13.65 10.92 14.52 12.39 14.52C13.51 14.52 14.32 14.01 14.55 13.06L14.63 13.06C14.76 13.85 15.29 14.35 16.03 14.35ZM13.16 13.08C12.54 13.08 12.19 12.82 12.19 12.29L12.19 12.08C12.19 11.55 12.61 11.26 13.41 11.26L14.42 11.26L14.42 12.12C14.42 12.80 13.85 13.08 13.16 13.08ZM21.85 10.43L21.31 12.56L21.22 12.56L20.69 10.43L19.61 7.00L17.56 7.00L20.13 14.73L19.88 15.54L18.49 15.54L18.49 17.15L19.78 17.15C21.04 17.15 21.66 16.62 22.04 15.48L24.86 7.00L22.93 7.00ZM30.25 14.35L32.33 14.35L32.33 7.00L30.25 7.00L30.25 11.77C30.25 12.47 29.60 12.84 28.95 12.84C28.20 12.84 27.90 12.33 27.90 11.44L27.90 7.00L25.83 7.00L25.83 11.62C25.83 13.47 26.63 14.52 28.13 14.52C29.33 14.52 29.93 13.86 30.18 13.12L30.25 13.12ZM36.75 14.52C38.64 14.52 39.90 13.48 39.90 12.07C39.90 10.79 39.07 10.07 37.48 9.86L36.65 9.74C36.05 9.66 35.88 9.45 35.88 9.06C35.88 8.69 36.16 8.44 36.86 8.44C37.48 8.44 38.09 8.74 38.56 9.20L39.75 7.98C39.00 7.25 38.29 6.83 36.75 6.83C35.00 6.83 33.89 7.81 33.89 9.23C33.89 10.56 34.71 11.28 36.37 11.49L37.17 11.59C37.69 11.66 37.91 11.84 37.91 12.21C37.91 12.64 37.63 12.91 36.82 12.91C36.02 12.91 35.39 12.54 34.87 11.97L33.66 13.20C34.41 14.04 35.34 14.52 36.75 14.52ZM41.31 14.35L43.39 14.35L43.39 9.59C43.39 8.86 44.04 8.51 44.72 8.51C45.47 8.51 45.74 8.97 45.74 9.91L45.74 14.35L47.81 14.35L47.81 9.74C47.81 7.90 47.01 6.83 45.51 6.83C44.35 6.83 43.74 7.48 43.47 8.25L43.39 8.25L43.39 3.99L41.31 3.99Z"></path></g><!----><!----></svg>